:version 1.10
:name ASF
:units
  mass 1
  length 1
  angle deg
:documentation
  ASF file generated by Kaydara
:root
  axis xyz
  order  tx ty tz rx ry rz
  position 0 0 0
  orientation 0 0 0
:bonedata
  begin
    id 1
    name RightUpLegDummy
    direction -0.718183 -0.695806 0.00816078
    length 4.904
    axis 0 0 0 xyz
  end
  begin
    id 2
    name RightUpLeg
    direction 3.53989e-006 -0.995788 0.0916897
    length 17.4976
    axis -3.49089 -0.000906621 0.000287158 xyz
    dof rx ry rz
  end
  begin
    id 3
    name RightLeg
    direction 0.00371093 -0.995096 -0.0988418
    length 16.5821
    axis 3.68512 0.0193738 -0.131023 xyz
    dof rx ry rz
  end
  begin
    id 4
    name RightFoot
    direction 0.000791514 -0.46099 0.887405
    length 3.77069
    axis 4.84075e-005 -0.120479 -0.188788 xyz
    dof rx ry rz
  end
  begin
    id 5
    name RightToes
    direction 0.00124746 -0.014064 0.9999
    length 3.85082
    axis 0.00048216 0.542163 -0.142577 xyz
    dof rx ry rz
  end
  begin
    id 6
    name SpineDummy
    direction 8.36599e-015 1 5.97571e-016
    length 4.6813
    axis 0 0 0 xyz
  end
  begin
    id 7
    name Spine
    direction -4.63632e-008 0.999988 0.00495137
    length 10.1015
    axis -0.00138897 0.000121419 3.25764e-006 xyz
    dof rx ry rz
  end
  begin
    id 8
    name Spine1
    direction 0 0 0
    length 0
    axis -0.00138896 0.000121452 2.39764e-006 xyz
    dof rx ry rz
  end
  begin
    id 9
    name HEadDummy
    direction -3.91456e-008 0.999999 0.00127422
    length 3.43865
    axis -0.00138896 0.000121452 2.39764e-006 xyz
  end
  begin
    id 10
    name HEad
    direction -0.0222688 0.980941 0.193023
    length 5.12695
    axis -0.00138895 0.000121452 2.39764e-006 xyz
    dof rx ry rz
  end
  begin
    id 11
    name LeftShoulder1Dummy
    direction 0.998891 -0.0402508 -0.0244456
    length 3.5433
    axis -0.00138896 0.000121452 2.39764e-006 xyz
  end
  begin
    id 12
    name LeftShoulder1
    direction 0.99951 -0.000327743 0.0313091
    length 4.05031
    axis -0.00138896 0.000121452 2.39764e-006 xyz
    dof rx ry rz
  end
  begin
    id 13
    name LeftArm
    direction 0.998561 -0.00100054 -0.0536182
    length 10.3537
    axis -23.1894 0.134784 0.96751 xyz
    dof rx ry rz
  end
  begin
    id 14
    name LeftForeArm
    direction 0.998903 0.00866434 0.046012
    length 8.70632
    axis -9.91835 -0.06569 -0.177792 xyz
    dof rx ry rz
  end
  begin
    id 15
    name LeftHand
    direction 0.992938 -0.0411636 0.11126
    length 5.32135
    axis -0.00960227 -0.00340091 0.185174 xyz
    dof rx ry rz
  end
  begin
    id 16
    name RightShoulderDummy
    direction -0.998891 -0.0402509 -0.0244414
    length 3.5433
    axis -0.00138896 0.000121452 2.39764e-006 xyz
  end
  begin
    id 17
    name RightShoulder
    direction -0.99951 -0.000327827 0.0313133
    length 4.05031
    axis 0.215806 0.000203644 -0.00680151 xyz
    dof rx ry rz
  end
  begin
    id 18
    name RightArm
    direction -0.998573 -0.000999583 -0.053403
    length 10.3947
    axis -23.2009 -0.134239 -0.9641 xyz
    dof rx ry rz
  end
  begin
    id 19
    name RightForeArm
    direction -0.998898 0.00868026 0.0461306
    length 8.68355
    axis -9.92322 0.0658061 0.178869 xyz
    dof rx ry rz
  end
  begin
    id 20
    name RightHand
    direction -0.992843 -0.0414603 0.112003
    length 5.28593
    axis -0.00960634 0.00330671 -0.185226 xyz
    dof rx ry rz
  end
  begin
    id 21
    name LeftUpLegDummy
    direction 0.718183 -0.695806 0.00816078
    length 4.904
    axis 0 0 0 xyz
  end
  begin
    id 22
    name LeftUpLeg
    direction -6.8115e-006 -0.995793 0.0916336
    length 17.4976
    axis -3.48766 0.00143441 -0.000523914 xyz
    dof rx ry rz
  end
  begin
    id 23
    name LeftLeg
    direction -0.00601357 -0.995091 -0.0987824
    length 16.5821
    axis 3.68177 -0.00654038 -0.00028478 xyz
    dof rx ry rz
  end
  begin
    id 24
    name LeftFoot
    direction -0.00417578 -0.460984 0.887399
    length 3.77069
    axis 1.87232e-006 4.66002e-005 -8.1837e-006 xyz
    dof rx ry rz
  end
  begin
    id 25
    name LeftToes
    direction 0.00818058 -0.00485161 0.999955
    length 3.85048
    axis 1.06246e-005 4.65855e-005 -8.18502e-006 xyz
    dof rx ry rz
  end
:hierarchy
  begin
    root RightUpLegDummy SpineDummy LeftUpLegDummy
    RightUpLegDummy RightUpLeg
    RightUpLeg RightLeg
    RightLeg RightFoot
    RightFoot RightToes
    SpineDummy Spine
    Spine Spine1
    Spine1 HEadDummy LeftShoulder1Dummy RightShoulderDummy
    HEadDummy HEad
    LeftShoulder1Dummy LeftShoulder1
    LeftShoulder1 LeftArm
    LeftArm LeftForeArm
    LeftForeArm LeftHand
    RightShoulderDummy RightShoulder
    RightShoulder RightArm
    RightArm RightForeArm
    RightForeArm RightHand
    LeftUpLegDummy LeftUpLeg
    LeftUpLeg LeftLeg
    LeftLeg LeftFoot
    LeftFoot LeftToes
  end

:SAMPLES-PER-SECOND 24
:FULLY-SPECIFIED
:DEGREES
1
root  2.25239 38.9467 21.5623 0.394043 56.8165 -6.95618
RightUpLeg  -13.901 -2.39458 -7.27883
RightLeg  23.9101 -3.68259 -1.97828
RightFoot  -9.18969 -0.229977 8.79764
RightToes  -2.08645e-008 3.77894e-005 6.81332e-007
Spine  2.90089 -1.21448 2.1939
Spine1  4.46908 -1.41957 0.326863
HEad  -32.1882 -27.8935 10.6688
LeftShoulder1  7.44086 -13.4343 -37.8179
LeftArm  13.2092 19.6542 -18.3953
LeftForeArm  158.684 -73.7298 -145.211
LeftHand  -0.507844 -2.40869 7.77037
RightShoulder  3.57703 6.26337 30.7246
RightArm  9.7109 -18.0718 26.9542
RightForeArm  143.911 76.3726 135.151
RightHand  -0.959774 8.18646 -8.55188
LeftUpLeg  -12.0722 -3.19561 7.94955
LeftLeg  25.4689 7.66333 4.31833
LeftFoot  -15.7661 -0.32154 -10.8625
LeftToes  1.24767e-006 1.47042e-008 1.32732e-009
2
root  2.07068 38.3182 21.241 -0.0908203 55.5369 -5.77313
RightUpLeg  -16.2822 -0.263474 -8.14956
RightLeg  30.4613 -4.66204 -3.20872
RightFoot  -11.9156 -0.034463 8.78606
RightToes  -2.08645e-008 3.77894e-005 6.81332e-007
Spine  4.66004 -0.637833 0.125329
Spine1  6.3864 -1.03746 0.921039
HEad  -35.1407 -27.0801 12.6324
LeftShoulder1  8.12229 -13.9632 -40.2787
LeftArm  7.79162 13.8497 -20.209
LeftForeArm  149.779 -77.4459 -132.668
LeftHand  -0.579032 -2.40107 8.83781
RightShoulder  3.71223 6.43077 31.4752
RightArm  6.16995 -13.1218 28.4352
RightForeArm  128.76 79.1911 117.739
RightHand  -1.00214 7.87269 -9.10748
LeftUpLeg  -13.158 -2.9379 6.63811
LeftLeg  31.1407 9.07761 6.22979
LeftFoot  -19.3215 -0.590394 -10.0895
LeftToes  1.24767e-006 1.47042e-008 1.32732e-009
3
root  2.00654 38.343 21.2227 0.650391 55.4941 -4.35352
RightUpLeg  -18.3573 1.70092 -8.87905
RightLeg  34.755 -6.16446 -4.82933
RightFoot  -10.609 -0.137991 10.2593
RightToes  -2.08645e-008 3.77894e-005 6.81332e-007
Spine  4.90978 -0.559786 -2.98143
Spine1  7.27516 -1.47422 2.90228
HEad  -35.5046 -26.6237 13.7089
LeftShoulder1  8.30051 -14.107 -40.8756
LeftArm  3.71874 13.054 -23.6632
LeftForeArm  143.712 -78.2769 -127.637
LeftHand  -0.556739 -2.15661 8.76369
RightShoulder  3.84905 6.58161 32.2787
RightArm  3.96057 -14.67 32.5662
RightForeArm  126.826 79.4479 115.351
RightHand  -0.878211 7.66802 -8.14554
LeftUpLeg  -12.5627 -3.38479 5.72728
LeftLeg  30.3997 9.23022 6.1572
LeftFoot  -18.858 -0.559112 -10.2062
LeftToes  1.24767e-006 1.47042e-008 1.32732e-009
4
root  2.08195 38.7748 21.3849 1.35522 55.7948 -4.54578
RightUpLeg  -20.7868 1.05774 -8.5691
RightLeg  37.0782 -5.60036 -4.78473
RightFoot  -6.35487 -0.474757 9.98332
RightToes  -2.08645e-008 3.77894e-005 6.81332e-007
Spine  4.19739 -0.972114 -3.72644
Spine1  6.2829 -2.00338 3.6275
HEad  -33.2915 -26.6874 12.6257
LeftShoulder1  8.18956 -13.9837 -40.5916
LeftArm  3.21514 16.1861 -26.4512
LeftForeArm  147.812 -76.501 -135.709
LeftHand  -0.544207 -1.34966 9.5295
RightShoulder  3.97233 6.66123 33.1933
RightArm  4.19376 -20.1413 36.1181
RightForeArm  141.145 77.8196 129.001
RightHand  -0.869329 8.05861 -7.85708
LeftUpLeg  -11.1001 -3.28207 6.09211
LeftLeg  25.8232 9.36711 5.2268
LeftFoot  -16.7113 -0.383141 -10.2683
LeftToes  1.24767e-006 1.47042e-008 1.32732e-009
5
root  2.19716 39.2901 21.6934 2.30188 55.8054 -4.88104
RightUpLeg  -22.7623 -1.94823 -7.67606
RightLeg  37.6497 -4.88973 -4.30124
RightFoot  -4.08069 -0.564401 8.40138
RightToes  -2.08645e-008 3.77894e-005 6.81332e-007
Spine  2.8456 -1.4117 -4.04765
Spine1  5.25869 -2.43717 3.96713
HEad  -30.448 -26.584 11.241
LeftShoulder1  7.89748 -13.691 -39.7389
LeftArm  4.11962 20.5646 -27.991
LeftForeArm  154.961 -74.0562 -143.927
LeftHand  -0.510225 -1.33453 8.97095
RightShoulder  4.10805 6.76805 34.1033
RightArm  5.9902 -25.3366 37.1334
RightForeArm  154.234 75.964 138.806
RightHand  -0.717309 9.24491 -6.06879
LeftUpLeg  -8.96309 -2.26939 6.67427
LeftLeg  19.4915 9.06844 4.07256
LeftFoot  -14.1739 -0.174902 -10.5009
LeftToes  1.24767e-006 1.47042e-008 1.32732e-009
6
root  2.29195 39.6243 22.0794 3.25598 55.375 -4.74713
RightUpLeg  -23.7781 -5.2943 -7.13946
RightLeg  36.6891 -5.03966 -4.27946
RightFoot  -5.83859 -0.425792 8.03287
RightToes  -2.08645e-008 3.77894e-005 6.81332e-007
Spine  1.65289 -1.72137 -4.55327
Spine1  4.69995 -2.72037 4.20362
HEad  -28.419 -26.1499 10.9428
LeftShoulder1  7.5202 -13.3548 -38.4788
LeftArm  5.40573 24.6413 -27.9712
LeftForeArm  160.434 -72.2014 -148.58
LeftHand  -0.39748 -1.77829 6.61676
RightShoulder  4.16606 6.84131 34.3785
RightArm  8.72458 -28.3602 36.135
RightForeArm  158.394 75.1987 141.745
RightHand  -0.406406 9.94895 -3.47023
LeftUpLeg  -6.53986 0.837926 6.94608
LeftLeg  13.5724 6.11608 3.01092
LeftFoot  -12.3386 -0.02715 -11.6648
LeftToes  1.24767e-006 1.47042e-008 1.32732e-009
7
root  2.32515 39.6794 22.4368 3.85901 53.9274 -4.4173
RightUpLeg  -25.0419 -7.31855 -7.42321
RightLeg  35.4388 -6.40957 -5.13039
RightFoot  -6.88051 -0.323103 7.08349
RightToes  -2.08645e-008 3.77894e-005 6.81332e-007
Spine  1.43047 -1.66968 -4.58997
Spine1  4.05205 -2.54258 3.91779
HEad  -27.7296 -25.4689 10.9385
LeftShoulder1  7.33678 -13.2269 -37.7544
LeftArm  8.44986 27.4392 -25.6312
LeftForeArm  161.996 -70.9434 -150.915
LeftHand  -0.364338 -1.84089 6.03216
RightShoulder  4.125 6.81864 34.0718
RightArm  12.1433 -28.5384 33.9216
RightForeArm  155.936 75.2273 141.2
RightHand  -0.236192 9.99119 -2.18464
LeftUpLeg  -4.55525 3.37787 7.3729
LeftLeg  10.4588 5.27066 2.31703
LeftFoot  -12.3373 -0.0367519 -12.6541
LeftToes  1.24767e-006 1.47042e-008 1.32732e-009
8
root  2.26394 39.4979 22.8106 5.19434 51.424 -2.58856
RightUpLeg  -26.9809 -7.85343 -9.03168
RightLeg  33.9565 -9.16916 -6.82057
RightFoot  -5.63206 -0.233759 3.93073
RightToes  -2.08645e-008 3.77894e-005 6.81332e-007
Spine  1.88502 -1.18235 -5.75941
Spine1  4.00471 -1.97863 3.81822
HEad  -28.76 -24.615 11.2617
LeftShoulder1  7.41732 -13.332 -37.9508
LeftArm  12.0353 28.3002 -21.5947
LeftForeArm  160.981 -70.6224 -151.269
LeftHand  -0.44112 -1.91628 7.19544
RightShoulder  4.08873 6.77528 33.8891
RightArm  14.1154 -26.482 31.8205
RightForeArm  152.674 76.0033 138.342
RightHand  -0.397587 9.7246 -3.44532
LeftUpLeg  -3.27161 4.0957 6.82998
LeftLeg  10.1719 7.38283 2.15192
LeftFoot  -13.2451 -0.131577 -12.6444
LeftToes  1.24767e-006 1.47042e-008 1.32732e-009
9
root  2.16706 39.1663 23.3192 6.88977 48.3733 0.260193
RightUpLeg  -28.291 -7.63559 -11.4411
RightLeg  29.6138 -11.2077 -7.03902
RightFoot  -4.83387 -0.11982 1.51175
RightToes  -2.08645e-008 3.77894e-005 6.81332e-007
Spine  2.32021 -0.60382 -7.81471
Spine1  5.03048 -1.31606 3.60969
HEad  -31.2065 -23.6006 12.4413
LeftShoulder1  7.59298 -13.4929 -38.542
LeftArm  13.6877 27.7554 -17.6736
LeftForeArm  158.453 -71.9106 -148.778
LeftHand  -0.476636 -2.4243 7.3001
RightShoulder  4.10928 6.77614 34.0842
RightArm  13.4655 -24.173 31.2224
RightForeArm  147.445 77.5718 131.644
RightHand  -0.494338 9.71028 -4.19057
LeftUpLeg  -2.4616 4.08935 5.4519
LeftLeg  11.9606 9.48177 2.46077
LeftFoot  -14.7141 -0.297267 -13.0002
LeftToes  1.24767e-006 1.47042e-008 1.32732e-009
10
root  2.15017 38.8072 24.0173 7.5575 45.0351 1.85309
RightUpLeg  -28.2746 -7.37299 -12.7917
RightLeg  20.879 -12.064 -5.22741
RightFoot  -4.17579 -0.140424 1.7663
RightToes  -2.08645e-008 3.77894e-005 6.81332e-007
Spine  2.5263 -0.318142 -8.55055
Spine1  5.9304 -0.815103 2.9643
HEad  -33.3683 -22.2223 13.2379
LeftShoulder1  7.75851 -13.6297 -39.1245
LeftArm  13.8186 27.6027 -15.3648
LeftForeArm  154.388 -73.8261 -144.334
LeftHand  -0.448319 -2.79569 6.58491
RightShoulder  4.16087 6.81371 34.4354
RightArm  12.0366 -23.1031 31.6896
RightForeArm  139.766 78.7853 123.871
RightHand  -0.497822 9.5852 -4.24475
LeftUpLeg  -1.40627 4.96286 4.91061
LeftLeg  14.0871 11.6575 3.05104
LeftFoot  -16.4707 -0.518869 -13.7164
LeftToes  1.24767e-006 1.47042e-008 1.32732e-009
11
root  2.23866 38.4755 24.9282 7.80505 41.8789 2.24817
RightUpLeg  -27.9028 -8.04321 -12.4726
RightLeg  10.5026 -13.012 -3.24998
RightFoot  -3.03884 -0.167362 2.23828
RightToes  -2.08645e-008 3.77894e-005 6.81332e-007
Spine  2.50187 -0.58404 -8.42023
Spine1  5.53899 -0.919639 2.83959
HEad  -33.8755 -20.6055 12.6631
LeftShoulder1  7.87143 -13.7231 -39.5147
LeftArm  13.8726 28.7505 -15.2836
LeftForeArm  151.57 -74.5238 -142.209
LeftHand  -0.462856 -2.53029 7.00101
RightShoulder  4.2098 6.8537 34.7483
RightArm  11.4385 -23.5227 31.9413
RightForeArm  138.395 78.7394 123.723
RightHand  -0.725348 8.95228 -6.24017
LeftUpLeg  -0.0493896 6.12735 5.20513
LeftLeg  15.1996 13.903 3.73999
LeftFoot  -17.3547 -0.64019 -14.0997
LeftToes  1.24767e-006 1.47042e-008 1.32732e-009
12
root  2.38367 38.0938 26.1031 8.23401 39.5078 2.5683
RightUpLeg  -28.2457 -8.26639 -12.3356
RightLeg  3.62366 -14.409 -2.02613
RightFoot  -4.00489 -0.126452 1.63516
RightToes  -2.08645e-008 3.77894e-005 6.81332e-007
Spine  2.14067 -1.47534 -8.82906
Spine1  4.63368 -1.8513 3.76868
HEad  -33.5266 -18.963 11.67
LeftShoulder1  7.95545 -13.7893 -39.8099
LeftArm  13.784 29.5001 -16.9553
LeftForeArm  152.16 -74.0013 -143.561
LeftHand  -0.505531 -2.19108 7.94168
RightShoulder  4.22 6.85371 34.8456
RightArm  11.4644 -24.5735 31.7881
RightForeArm  145.059 77.6604 130.715
RightHand  -0.687728 9.00289 -5.91906
LeftUpLeg  1.45618 6.65288 5.75025
LeftLeg  16.037 14.5981 4.16618
LeftFoot  -18.5529 -0.89685 -15.8567
LeftToes  1.24767e-006 1.47042e-008 1.32732e-009
13
root  2.53006 37.6573 27.5137 8.62231 37.6443 3.01001
RightUpLeg  -29.6457 -7.82862 -12.5277
RightLeg  2.42621 -15.2429 -2.2491
RightFoot  -5.67082 -0.0766429 0.707427
RightToes  -2.08645e-008 3.77894e-005 6.81332e-007
Spine  1.49544 -2.59264 -9.94549
Spine1  4.3827 -3.36421 6.11595
HEad  -33.3693 -17.2817 10.8513
LeftShoulder1  8.12174 -13.9211 -40.3831
LeftArm  13.5301 27.937 -19.3205
LeftForeArm  154.097 -73.4547 -145.113
LeftHand  -0.509358 -2.13185 8.06004
RightShoulder  4.1902 6.81802 34.6998
RightArm  11.4414 -25.0966 31.6056
RightForeArm  150.415 76.6973 135.644
RightHand  -0.704615 9.174 -5.98789
LeftUpLeg  3.79924 7.12573 6.57594
LeftLeg  16.0564 15.993 4.5382
LeftFoot  -19.5531 -1.22879 -18.603
LeftToes  1.24767e-006 1.47042e-008 1.32732e-009
14
root  2.67258 37.3424 29.0559 9.17151 35.5272 3.38318
RightUpLeg  -32.2764 -7.80137 -12.1036
RightLeg  5.9899 -16.6903 -2.93425
RightFoot  -3.48024 0.0534227 -1.11419
RightToes  -2.08645e-008 3.77894e-005 6.81332e-007
Spine  0.873202 -3.50088 -10.6197
Spine1  4.04891 -4.91626 9.07463
HEad  -32.9223 -15.8275 9.7475
LeftShoulder1  8.36358 -14.1205 -41.1779
LeftArm  14.131 24.4531 -21.689
LeftForeArm  155.167 -73.433 -145.338
LeftHand  -0.515398 -2.14715 8.13857
RightShoulder  4.18243 6.80779 34.6654
RightArm  11.2166 -25.611 31.2347
RightForeArm  151.116 76.5656 136.236
RightHand  -0.693124 9.36317 -5.83611
LeftUpLeg  7.27479 7.0089 7.2008
LeftLeg  13.4288 19.1429 4.42696
LeftFoot  -17.713 -1.03879 -20.3356
LeftToes  1.24767e-006 1.47042e-008 1.32732e-009
15
root  2.82497 37.1616 30.7925 9.35974 32.7704 2.73236
RightUpLeg  -36.577 -9.60632 -8.84144
RightLeg  13.8771 -14.9771 -4.12545
RightFoot  1.14983 0.376539 -3.36573
RightToes  -2.08645e-008 3.77894e-005 6.81332e-007
Spine  0.180876 -4.2 -8.99482
Spine1  2.9504 -5.99019 10.6985
HEad  -32.0396 -14.4873 8.36866
LeftShoulder1  8.55101 -14.2742 -41.7809
LeftArm  15.2203 20.272 -24.0906
LeftForeArm  155.986 -73.5727 -145.177
LeftHand  -0.559415 -2.25733 8.69601
RightShoulder  4.24953 6.86886 35.0677
RightArm  11.1922 -26.1254 30.3037
RightForeArm  149.268 76.8232 134.941
RightHand  -1.07573 9.14748 -8.94265
LeftUpLeg  11.1278 7.08491 8.66831
LeftLeg  10.4184 19.6883 3.5447
LeftFoot  -15.7708 -0.874467 -24.6805
LeftToes  1.24767e-006 1.47042e-008 1.32732e-009
